<svg width="186" height="156" viewBox="0 0 186 156" fill="none" xmlns="http://www.w3.org/2000/svg">
<path d="M28.3981 53.9523H49.8365V75.2935H28.3981V53.9523Z" fill="#1D63ED"/>
<path d="M56.0936 53.9523H77.532V75.2935H56.0936V53.9523Z" fill="#1D63ED"/>
<path d="M83.7906 53.9523H105.229V75.2935H83.7906V53.9523Z" fill="#1D63ED"/>
<path d="M111.488 53.9523H132.927V75.2935H111.488V53.9523Z" fill="#1D63ED"/>
<path d="M0.701172 53.9523H22.1395V75.2935H0.701172V53.9523Z" fill="#1D63ED"/>
<path d="M28.3981 26.9996H49.8365V48.3394H28.3981V26.9996Z" fill="#1D63ED"/>
<path d="M56.0936 26.9996H77.532V48.3394H56.0936V26.9996Z" fill="#1D63ED"/>
<path d="M83.7906 26.9996H105.229V48.3394H83.7906V26.9996Z" fill="#1D63ED"/>
<path d="M83.7906 0.0424805H105.229V21.3822H83.7906V0.0424805Z" fill="#1D63ED"/>
<path d="M142.643 69.1746C142.643 72.3812 143.576 75.3699 145.185 77.8841C136.311 81.7164 125.826 81.6476 99.0935 81.4723C92.5483 81.4294 85.0292 81.3801 76.3214 81.3801H55.9066C55.9052 94.8732 55.8212 107.735 51.0971 121.267C48.1069 129.832 43.302 138.56 35.6619 147.91C45.4145 152.861 57.7025 155.945 73.1413 155.957C106.481 155.988 135.655 140.344 155.785 103.347C158.703 107.583 163.587 110.36 169.119 110.36C178.055 110.36 185.299 103.116 185.299 94.1798C185.299 86.9097 180.504 80.7595 173.904 78.7192C173.836 78.7081 173.767 78.6946 173.699 78.6786C172.745 78.457 171.748 78.3391 170.721 78.3391C167.553 78.3391 164.656 79.4602 162.391 81.3302C161.076 82.4165 159.129 82.2308 158.043 80.9155C156.956 79.6001 157.142 77.6532 158.457 76.5669C161.788 73.8163 166.065 72.1614 170.721 72.1614C172.063 72.1614 173.377 72.2992 174.647 72.5624C174.88 71.4699 175.003 70.3365 175.003 69.1746C175.003 60.2387 167.759 52.9947 158.823 52.9947C149.887 52.9947 142.643 60.2387 142.643 69.1746Z" fill="#1D63ED"/>
<path d="M15.2895 131.21C-2.20631 108.913 21.6676 83.4655 49.7287 81.5014C49.7246 95.0216 49.5893 106.843 45.2645 119.231C42.4663 127.245 37.8676 135.607 30.2221 144.797C26.4709 142.389 23.1602 139.684 20.242 136.776C18.4475 134.987 16.7987 133.131 15.2895 131.21Z" fill="#1D63ED"/>
<path d="M22.1395 81.664H0.701177V103.005H5.11396C7.90255 96.7309 13.9953 88.474 22.1395 83.8725V81.664Z" fill="#1D63ED"/>
</svg>
