<svg width="185" height="157" viewBox="0 0 185 157" fill="none" xmlns="http://www.w3.org/2000/svg">
<path d="M28.3085 53.9817H49.6774V75.3345H28.3085V53.9817Z" fill="white"/>
<path d="M55.9143 53.9817H77.2832V75.3345H55.9143V53.9817Z" fill="white"/>
<path d="M83.5216 53.9817H104.891V75.3345H83.5216V53.9817Z" fill="white"/>
<path d="M111.129 53.9817H132.499V75.3345H111.129V53.9817Z" fill="white"/>
<path d="M0.701172 53.9817H22.0701V75.3345H0.701172V53.9817Z" fill="white"/>
<path d="M28.3085 27.0143H49.6774V48.3657H28.3085V27.0143Z" fill="white"/>
<path d="M55.9143 27.0143H77.2832V48.3657H55.9143V27.0143Z" fill="white"/>
<path d="M83.5216 27.0143H104.891V48.3657H83.5216V27.0143Z" fill="white"/>
<path d="M83.5216 0.0424805H104.891V21.3939H83.5216V0.0424805Z" fill="white"/>
<path d="M142.183 69.2123C142.183 72.4206 143.113 75.4109 144.717 77.9266C135.872 81.7609 125.421 81.6921 98.7749 81.5167C92.251 81.4737 84.7562 81.4244 76.0766 81.4244H55.7279C55.7265 94.9249 55.6428 107.794 50.9339 121.333C47.9534 129.902 43.1641 138.636 35.5487 147.99C45.2698 152.944 57.518 156.03 72.9068 156.042C106.139 156.073 135.218 140.42 155.283 103.404C158.191 107.642 163.059 110.42 168.574 110.42C177.481 110.42 184.701 103.172 184.701 94.2311C184.701 86.9571 179.922 80.8035 173.343 78.7621C173.275 78.7509 173.207 78.7374 173.139 78.7215C172.188 78.4997 171.195 78.3818 170.17 78.3818C167.013 78.3818 164.125 79.5034 161.868 81.3745C160.557 82.4614 158.616 82.2756 157.533 80.9595C156.45 79.6435 156.636 77.6955 157.947 76.6086C161.266 73.8565 165.53 72.2007 170.17 72.2007C171.509 72.2007 172.818 72.3386 174.084 72.6019C174.316 71.5088 174.438 70.3748 174.438 69.2123C174.438 60.2715 167.218 53.0236 158.311 53.0236C149.404 53.0236 142.183 60.2715 142.183 69.2123Z" fill="white"/>
<path d="M15.2423 131.281C-2.1969 108.973 21.5998 83.5109 49.57 81.5458C49.5659 95.0733 49.431 106.901 45.1203 119.295C42.3311 127.315 37.7472 135.681 30.1265 144.875C26.3875 142.467 23.0875 139.761 20.1788 136.85C18.3901 135.06 16.7465 133.203 15.2423 131.281Z" fill="white"/>
<path d="M22.0701 81.7084H0.701177V103.061H5.09967C7.87923 96.7836 13.9523 88.5222 22.0701 83.9182V81.7084Z" fill="white"/>
</svg>
