<svg width="746" height="156" viewBox="0 0 746 156" fill="none" xmlns="http://www.w3.org/2000/svg">
<path fill-rule="evenodd" clip-rule="evenodd" d="M707.109 85.0141V125.409C707.109 127.75 706.474 129.663 705.106 131.038C703.812 132.434 701.877 133.062 699.461 133.062C697.131 133.062 695.223 132.478 693.847 131.207L693.836 131.197L693.826 131.186C692.446 129.806 691.813 127.838 691.813 125.409V63.5715C691.813 61.2249 692.452 59.3079 693.826 57.9326C695.2 56.5572 697.116 55.9186 699.461 55.9186C701.871 55.9186 703.802 56.5437 705.096 57.9322C706.484 59.2278 707.109 61.1597 707.109 63.5715V64.2712C709.132 62.2469 711.441 60.5081 714.032 59.0559C718.755 56.4091 723.949 55.0886 729.598 55.0886C735.176 55.0886 739.453 56.0127 742.308 57.9775C743.756 58.8973 744.822 59.9531 745.428 61.1673C746.043 62.3967 746.156 63.7288 745.797 65.125C745.493 66.5323 744.875 67.6911 743.911 68.5483L743.907 68.5521C743.064 69.2899 742.065 69.7604 740.928 69.9674C739.801 70.1723 738.596 70.1172 737.322 69.8243C731.503 68.6424 726.312 68.5598 721.735 69.5477C717.144 70.5386 713.551 72.3724 710.907 75.0158C708.384 77.6301 707.109 80.9433 707.109 85.0141ZM628.406 128.686L628.394 128.679C622.386 125.297 617.638 120.688 614.161 114.857L614.154 114.846C610.765 108.912 609.08 102.143 609.08 94.5595C609.08 86.8932 610.669 80.1275 613.871 74.2848L613.873 74.2812C617.161 68.358 621.679 63.741 627.418 60.4448C633.165 57.0521 639.747 55.3653 647.141 55.3653C654.441 55.3653 660.754 57.0047 666.051 60.3161C671.336 63.5275 675.347 68.0162 678.078 73.7635C680.9 79.4143 682.3 85.9376 682.3 93.3145C682.3 95.2546 681.628 96.9196 680.287 98.2616L680.277 98.272L680.266 98.282C678.914 99.5308 677.207 100.137 675.205 100.137H623.512C624.047 102.879 624.994 105.414 626.349 107.747C628.587 111.598 631.671 114.642 635.616 116.884C639.547 119.119 644.073 120.247 649.215 120.247C651.982 120.247 654.802 119.756 657.68 118.767C660.675 117.676 663.044 116.462 664.81 115.137L664.817 115.132C666.307 114.039 667.925 113.472 669.655 113.468C671.481 113.371 673.09 113.886 674.436 115.025L674.448 115.035C676.122 116.514 677.078 118.207 677.184 120.112C677.292 122.06 676.405 123.706 674.69 125.021C671.477 127.573 667.481 129.637 662.722 131.225C658.049 132.815 653.546 133.615 649.215 133.615C641.459 133.615 634.517 131.978 628.406 128.686ZM623.686 87.5984C624.158 85.3639 624.87 83.2735 625.821 81.3251L625.824 81.3192C627.701 77.3843 630.418 74.3114 633.98 72.0827C637.623 69.8612 641.999 68.7342 647.141 68.7342C651.634 68.7342 655.404 69.7669 658.488 71.7951C661.595 73.838 663.996 76.6366 665.693 80.2112L665.696 80.2178C666.79 82.4652 667.554 84.924 667.983 87.5984H623.686ZM561.677 104.741V125.548C561.677 127.748 560.97 129.603 559.526 131.048C558.164 132.412 556.349 133.062 554.168 133.062C551.985 133.062 550.137 132.411 548.69 131.067L548.67 131.048L548.652 131.029C547.308 129.581 546.658 127.732 546.658 125.548V31.0616C546.658 28.8786 547.308 27.063 548.671 25.6994C550.115 24.2543 551.969 23.5472 554.168 23.5472C556.356 23.5472 558.17 24.2483 559.526 25.6991C560.976 27.0568 561.677 28.8721 561.677 31.0616V85.7061L594.033 56.8082L594.039 56.8026C595.544 55.3993 597.252 54.7085 599.137 54.813C601.092 54.9162 602.747 55.7485 604.067 57.2685C605.468 58.7741 606.157 60.4825 606.052 62.3672C605.948 64.2433 605.108 65.8899 603.608 67.2912L603.596 67.3024L578.747 89.4952L605.059 121.902C606.366 123.511 606.944 125.31 606.743 127.267C606.631 129.169 605.671 130.816 603.988 132.203L603.985 132.206C602.368 133.52 600.523 134.09 598.488 133.89C596.518 133.782 594.863 132.886 593.55 131.269L593.549 131.267L567.736 99.3294L561.677 104.741ZM488.458 128.538L488.446 128.531C482.626 125.055 478.02 120.4 474.639 114.573L474.632 114.561C471.34 108.631 469.701 101.958 469.701 94.5595C469.701 86.9799 471.339 80.2138 474.633 74.2812C477.921 68.358 482.438 63.741 488.178 60.4448C493.924 57.0521 500.506 55.3653 507.901 55.3653C513.435 55.3653 518.518 56.4448 523.138 58.6142C527.759 60.6914 531.897 63.8486 535.552 68.0684C536.959 69.6786 537.53 71.4355 537.095 73.2854C536.676 75.0683 535.531 76.5899 533.769 77.8636L533.766 77.8658C532.314 78.9034 530.685 79.271 528.925 78.9601L528.904 78.9565L528.884 78.9517C527.167 78.5474 525.621 77.6403 524.247 76.2656L524.239 76.2579L524.232 76.25C519.858 71.6053 514.431 69.2875 507.901 69.2875C503.321 69.2875 499.31 70.3644 495.844 72.4985L495.833 72.5058C492.362 74.5538 489.645 77.4473 487.677 81.2053C485.715 84.9542 484.72 89.3977 484.72 94.5595C484.72 99.4347 485.711 103.74 487.674 107.492C489.733 111.252 492.546 114.245 496.12 116.481C499.676 118.615 503.825 119.693 508.592 119.693C511.761 119.693 514.493 119.331 516.801 118.621C519.201 117.82 521.378 116.619 523.334 115.018L523.336 115.016C524.898 113.746 526.554 113.025 528.297 112.917C530.054 112.715 531.631 113.19 532.98 114.33C534.657 115.714 535.656 117.351 535.866 119.239C536.08 121.066 535.417 122.709 533.996 124.131L533.987 124.14L533.977 124.15C527.192 130.468 518.712 133.615 508.592 133.615C501.105 133.615 494.387 131.928 488.458 128.538ZM408.441 128.679C402.433 125.297 397.685 120.688 394.208 114.857L394.201 114.846C390.812 108.912 389.127 102.143 389.127 94.5595C389.127 86.8932 390.716 80.1275 393.918 74.2848L393.92 74.2812C397.208 68.3583 401.725 63.7415 407.464 60.4454C413.211 57.0524 419.793 55.3653 427.188 55.3653C434.488 55.3653 440.802 57.0048 446.099 60.3165C451.383 63.5277 455.393 68.016 458.125 73.7625C460.947 79.4134 462.347 85.9373 462.347 93.3145C462.347 95.2546 461.675 96.9196 460.334 98.2616L460.324 98.272L460.313 98.282C458.961 99.5308 457.254 100.137 455.252 100.137H403.559C404.094 102.879 405.041 105.414 406.396 107.747C408.634 111.598 411.718 114.642 415.663 116.884C419.594 119.119 424.12 120.247 429.262 120.247C432.029 120.247 434.849 119.756 437.727 118.767C440.722 117.676 443.091 116.462 444.857 115.137L444.864 115.132C446.354 114.039 447.972 113.472 449.702 113.468C451.528 113.371 453.137 113.886 454.483 115.025L454.495 115.035C456.169 116.514 457.125 118.207 457.231 120.112C457.339 122.061 456.452 123.707 454.737 125.021C451.523 127.573 447.528 129.637 442.769 131.225C438.096 132.815 433.593 133.615 429.262 133.615C421.506 133.615 414.564 131.978 408.453 128.686L408.441 128.679ZM403.733 87.5984C404.205 85.3639 404.917 83.2735 405.868 81.3251L405.871 81.3192C407.748 77.3843 410.465 74.3115 414.027 72.0828C417.67 69.8612 422.046 68.7342 427.188 68.7342C431.681 68.7342 435.451 69.7669 438.535 71.7951C441.642 73.838 444.043 76.6366 445.74 80.2112L445.743 80.2178C446.837 82.4652 447.601 84.924 448.03 87.5984H403.733ZM323.739 129.649C318.636 126.812 314.577 122.699 311.566 117.331L311.561 117.322C308.631 111.931 307.186 105.347 307.186 97.603V63.5715C307.186 61.3711 307.892 59.516 309.337 58.0709C310.863 56.5439 312.757 55.7803 314.972 55.7803C317.178 55.7803 319.031 56.5389 320.469 58.0706C321.999 59.5094 322.757 61.3639 322.757 63.5715V97.603C322.757 102.677 323.708 106.83 325.563 110.102C327.427 113.298 329.946 115.684 333.127 117.277C336.332 118.79 339.953 119.555 344.003 119.555C347.867 119.555 351.251 118.791 354.173 117.285L354.181 117.281C357.212 115.764 359.602 113.722 361.37 111.158C363.126 108.609 364.004 105.758 364.004 102.583V63.5715C364.004 61.2892 364.705 59.3841 366.155 57.9326L366.164 57.9236L366.173 57.9149C367.702 56.4869 369.591 55.7803 371.79 55.7803C374.071 55.7803 375.975 56.481 377.425 57.9326C378.876 59.3841 379.576 61.2892 379.576 63.5715V125.271C379.576 127.472 378.87 129.362 377.443 130.892L377.434 130.901L377.425 130.91C375.975 132.361 374.071 133.062 371.79 133.062C369.591 133.062 367.702 132.355 366.173 130.927L366.155 130.91L366.138 130.892C364.753 129.407 364.047 127.584 364.006 125.466C362.227 127.053 360.24 128.448 358.046 129.65C353.131 132.392 347.522 133.754 341.238 133.754C334.773 133.754 328.939 132.393 323.753 129.657L323.739 129.649ZM292.155 71.6544C295.179 77.0463 296.67 83.6323 296.67 91.3777V125.409C296.67 127.625 295.907 129.521 294.381 131.048C292.937 132.493 291.083 133.2 288.885 133.2C286.685 133.2 284.797 132.494 283.268 131.066L283.249 131.048L283.232 131.03C281.805 129.5 281.099 127.61 281.099 125.409V91.3777C281.099 86.2051 280.146 82.0565 278.296 78.8829C276.431 75.6848 273.914 73.3468 270.737 71.8455L270.726 71.8402L270.715 71.8345C267.609 70.2363 263.995 69.4259 259.853 69.4259C256.084 69.4259 252.696 70.1884 249.675 71.6999C246.644 73.2168 244.254 75.2588 242.487 77.8232L242.48 77.8332C240.732 80.2811 239.852 83.1263 239.852 86.3975V125.409C239.852 127.61 239.146 129.5 237.719 131.03L237.71 131.039L237.701 131.048C236.25 132.5 234.347 133.2 232.066 133.2C229.867 133.2 227.978 132.494 226.449 131.066L226.431 131.048L226.413 131.03C224.986 129.5 224.28 127.61 224.28 125.409V31.3383C224.28 29.0561 224.98 27.151 226.431 25.6994L226.44 25.6905L226.449 25.6818C227.978 24.2538 229.867 23.5472 232.066 23.5472C234.347 23.5472 236.25 24.2479 237.701 25.6994C239.152 27.151 239.852 29.0561 239.852 31.3383V63.489C241.642 61.9119 243.63 60.5251 245.814 59.3291C250.817 56.5899 256.424 55.2269 262.618 55.2269C269.084 55.2269 274.875 56.634 279.972 59.4658C285.17 62.2103 289.233 66.2804 292.155 71.6544Z" fill="#FFFFF5" fill-opacity="0.86"/>
<path d="M27.6931 53.9392H49.1283V75.2921H27.6931V53.9392Z" fill="#FFFFF5" fill-opacity="0.86"/>
<path d="M55.3846 53.9392H76.8199V75.2921H55.3846V53.9392Z" fill="#FFFFF5" fill-opacity="0.86"/>
<path d="M83.0777 53.9392H104.513V75.2921H83.0777V53.9392Z" fill="#FFFFF5" fill-opacity="0.86"/>
<path d="M110.771 53.9392H132.208V75.2921H110.771V53.9392Z" fill="#FFFFF5" fill-opacity="0.86"/>
<path d="M0 53.9392H21.4353V75.2921H0V53.9392Z" fill="#FFFFF5" fill-opacity="0.86"/>
<path d="M27.6931 26.9718H49.1283V48.3232H27.6931V26.9718Z" fill="#FFFFF5" fill-opacity="0.86"/>
<path d="M55.3846 26.9718H76.8199V48.3232H55.3846V26.9718Z" fill="#FFFFF5" fill-opacity="0.86"/>
<path d="M83.0777 26.9718H104.513V48.3232H83.0777V26.9718Z" fill="#FFFFF5" fill-opacity="0.86"/>
<path d="M83.0777 0H104.513V21.3514H83.0777V0Z" fill="#FFFFF5" fill-opacity="0.86"/>
<path d="M141.922 69.1698C141.922 72.3781 142.854 75.3684 144.463 77.8841C135.591 81.7184 125.107 81.6496 98.3784 81.4742C91.8342 81.4313 84.3162 81.3819 75.6095 81.3819H55.1976C55.1962 94.8824 55.1123 107.752 50.3888 121.29C47.399 129.86 42.5948 138.593 34.9558 147.948C44.7071 152.902 56.9933 155.987 72.4299 156C105.765 156.031 134.934 140.378 155.062 103.361C157.979 107.599 162.862 110.377 168.394 110.377C177.329 110.377 184.572 103.129 184.572 94.1886C184.572 86.9146 179.777 80.7611 173.178 78.7196C173.11 78.7084 173.041 78.6949 172.973 78.679C172.019 78.4572 171.023 78.3393 169.995 78.3393C166.828 78.3393 163.931 79.461 161.667 81.332C160.352 82.4189 158.405 82.2332 157.319 80.9171C156.233 79.601 156.419 77.653 157.734 76.5661C161.064 73.814 165.341 72.1582 169.995 72.1582C171.338 72.1582 172.652 72.2961 173.922 72.5594C174.154 71.4663 174.277 70.3324 174.277 69.1698C174.277 60.229 167.034 52.9811 158.099 52.9811C149.165 52.9811 141.922 60.229 141.922 69.1698Z" fill="#FFFFF5" fill-opacity="0.86"/>
<path d="M14.5863 131.239C-2.90707 108.93 20.9635 83.4684 49.0206 81.5033C49.0165 95.0309 48.8812 106.859 44.5571 119.253C41.7592 127.272 37.1611 135.639 29.5167 144.833C25.7661 142.424 22.4559 139.718 19.5381 136.808C17.7439 135.018 16.0952 133.161 14.5863 131.239Z" fill="#FFFFF5" fill-opacity="0.86"/>
<path d="M21.4353 81.666H5.61023e-06V103.019H4.41216C7.20035 96.7411 13.2923 88.4797 21.4353 83.8757V81.666Z" fill="#FFFFF5" fill-opacity="0.86"/>
</svg>
