<svg width="185" height="156" viewBox="0 0 185 156" fill="none" xmlns="http://www.w3.org/2000/svg">
<path d="M28.3085 53.9392H49.6774V75.292H28.3085V53.9392Z" fill="#FFFFF5" fill-opacity="0.86"/>
<path d="M55.9143 53.9392H77.2832V75.292H55.9143V53.9392Z" fill="#FFFFF5" fill-opacity="0.86"/>
<path d="M83.5216 53.9392H104.891V75.292H83.5216V53.9392Z" fill="#FFFFF5" fill-opacity="0.86"/>
<path d="M111.129 53.9392H132.499V75.292H111.129V53.9392Z" fill="#FFFFF5" fill-opacity="0.86"/>
<path d="M0.701172 53.9392H22.0701V75.292H0.701172V53.9392Z" fill="#FFFFF5" fill-opacity="0.86"/>
<path d="M28.3085 26.9718H49.6774V48.3232H28.3085V26.9718Z" fill="#FFFFF5" fill-opacity="0.86"/>
<path d="M55.9143 26.9718H77.2832V48.3232H55.9143V26.9718Z" fill="#FFFFF5" fill-opacity="0.86"/>
<path d="M83.5216 26.9718H104.891V48.3232H83.5216V26.9718Z" fill="#FFFFF5" fill-opacity="0.86"/>
<path d="M83.5216 0H104.891V21.3514H83.5216V0Z" fill="#FFFFF5" fill-opacity="0.86"/>
<path d="M142.183 69.1698C142.183 72.3781 143.113 75.3684 144.717 77.8841C135.872 81.7184 125.421 81.6496 98.7749 81.4742C92.251 81.4313 84.7562 81.3819 76.0766 81.3819H55.7279C55.7265 94.8824 55.6428 107.752 50.9339 121.29C47.9534 129.86 43.1641 138.593 35.5487 147.948C45.2698 152.902 57.518 155.987 72.9068 156C106.139 156.031 135.218 140.378 155.283 103.361C158.191 107.599 163.059 110.377 168.574 110.377C177.481 110.377 184.701 103.129 184.701 94.1886C184.701 86.9146 179.922 80.761 173.343 78.7196C173.275 78.7084 173.207 78.6949 173.139 78.679C172.188 78.4572 171.195 78.3393 170.17 78.3393C167.013 78.3393 164.125 79.4609 161.868 81.332C160.557 82.4189 158.616 82.2331 157.533 80.9171C156.45 79.601 156.636 77.653 157.947 76.5661C161.266 73.814 165.53 72.1582 170.17 72.1582C171.509 72.1582 172.818 72.2961 174.084 72.5594C174.316 71.4663 174.438 70.3324 174.438 69.1698C174.438 60.229 167.218 52.9811 158.311 52.9811C149.404 52.9811 142.183 60.229 142.183 69.1698Z" fill="#FFFFF5" fill-opacity="0.86"/>
<path d="M15.2423 131.239C-2.1969 108.93 21.5998 83.4684 49.57 81.5033C49.5659 95.0309 49.431 106.859 45.1203 119.253C42.3311 127.272 37.7472 135.639 30.1265 144.833C26.3875 142.424 23.0875 139.718 20.1788 136.808C18.3901 135.018 16.7465 133.161 15.2423 131.239Z" fill="#FFFFF5" fill-opacity="0.86"/>
<path d="M22.0701 81.666H0.701177V103.019H5.09967C7.87923 96.7411 13.9523 88.4797 22.0701 83.8757V81.666Z" fill="#FFFFF5" fill-opacity="0.86"/>
</svg>
