<?xml version="1.0" standalone="no"?>
<!DOCTYPE svg PUBLIC "-//W3C//DTD SVG 20010904//EN"
 "http://www.w3.org/TR/2001/REC-SVG-20010904/DTD/svg10.dtd">
<svg version="1.0" xmlns="http://www.w3.org/2000/svg"
 width="700.000000pt" height="700.000000pt" viewBox="0 0 700.000000 700.000000"
 preserveAspectRatio="xMidYMid meet">
<metadata>
Created by potrace 1.14, written by Peter Selinger 2001-2017
</metadata>
<g transform="translate(0.000000,700.000000) scale(0.100000,-0.100000)"
fill="#000000" stroke="none">
<path d="M3213 6432 l-43 -3 0 -400 c0 -219 3 -400 8 -400 4 -1 186 -2 405 -3
l397 -1 0 402 c0 316 -3 403 -12 403 -68 3 -723 4 -755 2z"/>
<path d="M1404 5412 l-321 -2 1 -403 1 -402 403 0 402 -1 0 402 0 402 -82 4
c-46 2 -227 2 -404 0z"/>
<path d="M2448 5412 l-318 -2 -1 -28 c0 -15 -1 -196 -1 -402 l-1 -375 404 0
404 0 0 402 0 402 -85 3 c-47 2 -228 2 -402 0z"/>
<path d="M3292 5412 l-122 -3 2 -402 3 -402 400 0 400 0 3 402 2 402 -282 3
c-156 2 -338 2 -406 0z"/>
<path d="M5880 4415 c-208 -47 -379 -194 -449 -386 -60 -166 -50 -350 29 -496
11 -21 20 -41 20 -45 0 -13 -174 -69 -260 -84 -14 -3 -50 -9 -80 -14 -92 -16
-167 -23 -385 -36 -70 -4 -1090 -4 -2088 -1 -297 1 -540 0 -542 -3 -2 -3 -6
-140 -9 -305 -4 -165 -8 -311 -10 -325 -3 -14 -7 -65 -11 -114 -4 -50 -8 -97
-10 -105 -2 -9 -6 -45 -10 -81 -4 -35 -20 -127 -37 -205 -16 -77 -31 -151 -34
-164 -3 -14 -7 -28 -10 -33 -3 -4 -7 -16 -9 -27 -8 -41 -78 -236 -119 -333
-107 -250 -270 -521 -446 -743 -33 -41 -60 -76 -60 -78 0 -9 191 -92 295 -129
116 -42 332 -100 431 -117 33 -6 68 -12 79 -14 11 -3 47 -8 80 -12 33 -4 71
-9 85 -11 197 -26 794 -25 890 1 8 3 35 7 60 10 381 46 845 203 1165 393 404
239 726 530 1048 947 103 133 268 389 356 551 l34 60 76 -76 c188 -187 449
-235 686 -126 165 77 278 212 333 399 30 101 24 255 -13 357 -51 138 -142 251
-263 323 -81 50 -146 69 -236 72 -120 4 -206 -24 -319 -101 -63 -43 -109 -45
-155 -6 -40 33 -55 86 -37 129 29 68 184 159 331 194 73 17 109 20 201 16 129
-5 119 -14 122 108 7 265 -165 506 -422 592 -85 29 -223 37 -307 18z"/>
<path d="M39 4378 c-1 -16 -1 -746 0 -773 1 -20 5 -21 404 -20 l402 0 1 403 0
402 -403 0 c-315 0 -403 -3 -404 -12z"/>
<path d="M1084 3988 l1 -403 403 -1 402 0 0 403 0 403 -404 0 -403 0 1 -402z"/>
<path d="M2129 4368 c-1 -30 -1 -725 0 -759 l1 -25 403 0 402 1 0 403 0 402
-402 0 -403 0 -1 -22z"/>
<path d="M3170 3987 l0 -403 403 1 402 0 3 403 2 402 -405 0 -405 0 0 -403z"/>
<path d="M4218 4383 c-4 -7 -2 -755 1 -789 1 -7 126 -10 399 -8 218 0 399 2
402 3 4 1 5 768 1 794 0 4 -181 7 -400 7 -220 0 -401 -3 -403 -7z"/>
<path d="M57 3342 c-9 -2 -17 -11 -18 -20 -1 -21 -1 -763 0 -777 1 -7 33 -11
81 -10 l81 0 40 75 c142 262 323 464 551 614 53 36 57 40 56 77 0 35 -3 39
-27 40 -91 3 -751 3 -764 1z"/>
<path d="M1785 3338 c-129 -17 -235 -42 -360 -83 -292 -96 -503 -223 -719
-431 -80 -77 -175 -208 -233 -319 -141 -275 -144 -572 -8 -841 107 -210 305
-430 562 -624 l118 -89 25 27 c14 15 46 54 70 87 25 33 47 62 51 65 31 28 206
306 276 440 102 195 210 495 238 661 3 19 8 41 10 49 8 27 28 161 39 255 14
116 16 148 22 240 3 55 7 206 9 336 l3 235 -21 0 c-12 0 -49 -4 -82 -8z"/>
</g>
</svg>
